<?xml version="1.0" encoding="UTF-8"?>
<svg id="Layer_1" data-name="Layer 1" xmlns="http://www.w3.org/2000/svg" xmlns:xlink="http://www.w3.org/1999/xlink" viewBox="0 0 209.77 317.79">
  <defs>
    <style>
      .cls-1 {
        fill: url(#radial-gradient);
      }
    </style>
    <radialGradient id="radial-gradient" cx="22.43" cy="60.49" fx="22.43" fy="60.49" r="306.88" gradientUnits="userSpaceOnUse">
      <stop offset="0" stop-color="#f05167"/>
      <stop offset="1" stop-color="#995aa4"/>
    </radialGradient>
  </defs>
  <path class="cls-1" d="M192.85,204.12l-71.92-44.94-.46-.29,89.29-55.8c-.09-6.23-.75-12.34-1.91-18.27-2.27-11.7-6.51-22.72-12.34-32.69-.72-1.24-1.46-2.45-2.23-3.65-2.22-3.45-4.62-6.77-7.2-9.92C168,16.45,141.09,1.85,110.79.18c-1.94-.12-3.91-.18-5.89-.18s-3.95.06-5.89.18C64.37,2.1,34.17,20.9,16.5,48.48c-6.99,10.91-12.01,23.19-14.57,36.35C.78,90.74.12,96.85.02,103.08c-.02.6-.02,1.2-.02,1.82v69.41l16.5-10.31v-59.09c0-3.58.21-7.12.64-10.58C22.13,52.4,56.45,19.49,99,16.7c1.94-.13,3.91-.2,5.89-.2s3.95.07,5.89.2c24.46,1.6,46.2,13.15,61.22,30.66,3.58,4.17,6.79,8.7,9.56,13.49,5.79,10.08,9.66,21.4,11.09,33.47L.02,214.69c.09,6.23.75,12.34,1.91,18.27,2.56,13.15,7.58,25.45,14.57,36.35,17.67,27.58,47.87,46.38,82.5,48.3,1.94.12,3.91.18,5.89.18s3.95-.06,5.89-.18c34.64-1.92,64.83-20.72,82.5-48.3,6.99-10.9,12.01-23.2,14.57-36.35,1.16-5.93,1.81-12.03,1.91-18.28l-16.48-10.29-.44-.27ZM110.79,301.08c-1.94.13-3.91.2-5.89.2s-3.95-.07-5.89-.2c-42.55-2.79-76.88-35.71-81.87-77.62l81.87-51.15v56.63c-3.52,2.04-5.89,5.85-5.89,10.21s2.37,8.17,5.89,10.21c1.73,1,3.75,1.58,5.89,1.58s4.16-.58,5.89-1.58c3.52-2.04,5.89-5.85,5.89-10.21s-2.37-8.17-5.89-10.21v-56.64l81.87,51.16c-4.99,41.91-39.31,74.83-81.87,77.62Z"/>
</svg>